<svg xmlns="http://www.w3.org/2000/svg" width="345.124" height="83" viewBox="0 0 345.124 83">
  <g id="LOGO" transform="translate(-91.876 -61)">
    <path id="Mac" d="M49.172,0H60.42L57.684-51.224h-15.2L37.088-34.2c-1.748,5.7-3.5,12.464-4.864,18.392h-.3c-1.14-6-2.66-12.388-4.332-18.316l-5.016-17.1H7.144L3.876,0H14.592l.988-19.456c.3-6.384.608-14.288.836-21.2h.152C17.86-33.972,19.532-26.676,21.2-20.6L26.676-.836H35.72l6.232-19.988c1.976-6,4.1-13.3,5.776-19.836h.152c0,7.448.228,14.9.456,21.052Zm50.92-21.964c0-8.816-3.876-16.112-16.264-16.112a30.518,30.518,0,0,0-14.44,3.344l2.128,7.448A20.9,20.9,0,0,1,81.776-30.1c5.7,0,6.764,2.812,6.764,4.864v.456c-13.148,0-21.812,4.56-21.812,14.212,0,5.928,4.484,11.4,12.008,11.4,4.408,0,8.208-1.6,10.64-4.56H89.6L90.288,0H100.7a48.165,48.165,0,0,1-.608-8.968ZM88.92-13.528a8.284,8.284,0,0,1-.228,1.976,6.386,6.386,0,0,1-6,4.256c-2.584,0-4.56-1.444-4.56-4.408,0-4.408,4.712-5.852,10.792-5.852ZM135.812-9.5A16.3,16.3,0,0,1,129.2-8.284c-5.624,0-10.184-3.648-10.184-10.412-.076-6.08,3.876-10.412,9.956-10.412a15.806,15.806,0,0,1,6.46,1.14l1.824-8.588A26.8,26.8,0,0,0,128.44-38c-13.832,0-21.28,8.892-21.28,19.76,0,11.628,7.676,19,19.684,19,4.408,0,8.284-.76,10.336-1.748Z" transform="translate(88 128)" fill="#fff"/>
    <g id="Ports" transform="translate(5)">
      <path id="Subtraction_1" data-name="Subtraction 1" d="M-697,270H-867a13.909,13.909,0,0,1-9.9-4.1A13.908,13.908,0,0,1-881,256V201a13.907,13.907,0,0,1,4.1-9.9A13.909,13.909,0,0,1-867,187h170a13.908,13.908,0,0,1,9.9,4.1A13.908,13.908,0,0,1-683,201v55a13.91,13.91,0,0,1-4.1,9.9A13.908,13.908,0,0,1-697,270Zm-25.9-26.032h0l-2.052,8.208a26.557,26.557,0,0,0,12.009,2.66,24.993,24.993,0,0,0,6.994-.9,14.449,14.449,0,0,0,5.013-2.515,10.709,10.709,0,0,0,4.028-8.664c-.078-5.576-3.172-9.115-10.031-11.476a20.23,20.23,0,0,1-4.712-2.08,2.568,2.568,0,0,1-1.292-2.252c0-1.856,1.648-2.964,4.407-2.964a18.651,18.651,0,0,1,8.056,2.128l1.976-7.98a24.493,24.493,0,0,0-10.412-2.2,20.2,20.2,0,0,0-6.243.929,14.349,14.349,0,0,0-4.768,2.567,11.345,11.345,0,0,0-3.043,3.878,11.253,11.253,0,0,0-1.07,4.862,8.985,8.985,0,0,0,2.384,6.27,18.772,18.772,0,0,0,8.256,4.9,14.74,14.74,0,0,1,4.294,1.967,2.753,2.753,0,0,1,1.1,2.366,2.509,2.509,0,0,1-1.159,2.233,7.045,7.045,0,0,1-3.78.808,22.635,22.635,0,0,1-9.957-2.736Zm-84.36-28.044c-12.1,0-19.912,7.756-19.912,19.759,0,5.757,1.915,10.625,5.538,14.079a17.677,17.677,0,0,0,6.1,3.769,21.757,21.757,0,0,0,7.589,1.3,20.218,20.218,0,0,0,13.538-4.816A17.208,17.208,0,0,0-790,243.839,22.517,22.517,0,0,0-788.34,235a21.467,21.467,0,0,0-1.365-7.726,17.41,17.41,0,0,0-3.851-6.03,17.174,17.174,0,0,0-5.974-3.921A20.983,20.983,0,0,0-807.264,215.924Zm53.2.912v8.512h4.94v15.2c0,5.191,1.044,8.8,3.192,11.02a12.347,12.347,0,0,0,8.74,3.192,25.162,25.162,0,0,0,7.448-.988l-.076-8.74a14.233,14.233,0,0,1-3.42.3,3.875,3.875,0,0,1-3.563-1.587c-.681-1.025-1-2.6-1-4.95V225.348h8.284v-8.512H-737.8V206.8l-11.324,3.116v6.917Zm-27.436,0c.218,3.06.3,6.491.3,12.236V254h11.552V235.152a13.685,13.685,0,0,1,.228-2.584c.78-3.664,3.735-5.852,7.9-5.852a17.381,17.381,0,0,1,3.1.3l.013,0V216.152a11.545,11.545,0,0,0-2.432-.228,10.105,10.105,0,0,0-5.672,1.824,11.787,11.787,0,0,0-4.36,5.928h-.3l-.456-6.84H-781.5Zm-69.845-14.44A96.16,96.16,0,0,0-867,203.46V254h11.476V235.608a19.725,19.725,0,0,0,3.952.3c7.064,0,12.82-1.866,16.644-5.4a13.449,13.449,0,0,0,3.525-5.254,19.281,19.281,0,0,0,1.188-6.906,14.745,14.745,0,0,0-5.472-11.857C-839.14,203.738-844.261,202.4-851.344,202.4Zm43.7,44.157a6.5,6.5,0,0,1-5.653-3.192,14.835,14.835,0,0,1-1.948-7.981,15.613,15.613,0,0,1,1.748-7.638,7.3,7.3,0,0,1,2.356-2.558,6.375,6.375,0,0,1,3.5-.976c5.441,0,7.372,5.977,7.372,11.1a15.121,15.121,0,0,1-1.976,8.16A6.247,6.247,0,0,1-807.644,246.552Zm-44-19.533a17.085,17.085,0,0,1-3.875-.3V211.592a20.924,20.924,0,0,1,4.711-.38,10.306,10.306,0,0,1,6.755,1.995,6.92,6.92,0,0,1,2.365,5.529,7.6,7.6,0,0,1-2.67,6.08A11.284,11.284,0,0,1-851.648,227.02Z" transform="translate(1115 -126)" fill="#fff"/>
    </g>
  </g>
</svg>
